<svg width="50" height="50" viewBox="0 0 50 50" fill="none" xmlns="http://www.w3.org/2000/svg">
<g clip-path="url(#clip0_1018_25)">
<path fill-rule="evenodd" clip-rule="evenodd" d="M25 50C38.8071 50 50 38.8071 50 25C50 11.1929 38.8071 0 25 0C11.1929 0 0 11.1929 0 25C0 38.8071 11.1929 50 25 50Z" fill="white"/>
<path fill-rule="evenodd" clip-rule="evenodd" d="M12.5 18.1681V32.3246C12.5 33.0947 13.0637 33.7189 13.8403 33.7189H35.9339C36.7097 33.7189 37.2742 33.0875 37.2742 32.3246V18.1681C37.2742 17.323 36.7694 16.6665 35.9339 16.6665H13.8403C12.9726 16.6665 12.5 17.3391 12.5 18.1681ZM14.5371 19.4012C14.5371 19.0601 14.7435 18.8649 15.0734 18.8649C15.2774 18.8649 23.3056 23.952 23.7919 24.2504L25.0484 25.0318C25.4468 24.7649 25.8468 24.5367 26.2597 24.2601C27.1024 23.7213 34.6008 18.8649 34.8073 18.8649C35.1379 18.8649 35.3435 19.0601 35.3435 19.4012C35.3435 19.7625 34.6476 20.1213 34.1944 20.398C31.3468 22.1334 28.5 24.0254 25.6806 25.8254C25.5161 25.9367 25.1976 26.1746 24.9589 26.1383C24.6927 26.0971 16.5234 20.8488 15.0371 19.9746C14.8137 19.8431 14.5371 19.723 14.5371 19.4012Z" fill="#191919"/>
</g>
<defs>
<clipPath id="clip0_1018_25">
<rect width="50" height="50" fill="white"/>
</clipPath>
</defs>
</svg>
