<svg width="60" height="60" viewBox="0 0 60 60" fill="none" xmlns="http://www.w3.org/2000/svg">
<g clip-path="url(#clip0_1016_2)">
<path d="M58.9038 27.3301L58.9014 27.3289L32.6538 1.06422C31.2378 -0.355148 28.7598 -0.353928 27.3486 1.063L1.09619 27.3301C0.390625 28.0398 0 28.9816 0 29.9819C0 30.9835 0.390625 31.9263 1.09863 32.6348L27.3462 58.8995C28.0542 59.6091 28.9966 60.0001 30 60.0001C31.0034 60.0001 31.9458 59.6091 32.6514 58.9007L58.9014 32.6348C59.6094 31.9263 60 30.9835 60 29.9819C60 28.9816 59.6094 28.0398 58.9038 27.3301Z" fill="#EF473B"/>
<path opacity="0.1" d="M59.2024 31.7245L32.679 58.264C31.9661 58.9798 31.0138 59.3748 30 59.3748C28.9862 59.3748 28.0339 58.9798 27.3185 58.2628L0.797546 31.7245C0.48764 31.4143 0.250824 31.0536 0.0672607 30.6689C0.203674 31.4088 0.555542 32.0912 1.0986 32.6346L27.3462 58.8992C28.0542 59.6089 28.9966 59.9998 30 59.9998C31.0034 59.9998 31.9458 59.6089 32.6513 58.9005L58.9013 32.6346C59.4444 32.0912 59.7964 31.4088 59.9328 30.6689C59.7493 31.0536 59.5123 31.4143 59.2024 31.7245Z" fill="#010101"/>
<path d="M42.5 24.9999C41.5628 24.9999 40.695 25.275 39.9445 25.7256L34.2743 20.0555C34.7247 19.305 35 18.4373 35 17.4999C35 14.7423 32.7563 12.4999 30 12.4999C29.0753 12.4999 28.2193 12.7694 27.4754 13.2088L21.3411 7.07373L19.574 8.84177L25.7082 14.9767C25.2693 15.7201 25 16.5757 25 17.4999C25 19.8232 26.6 21.7634 28.75 22.3223V37.6775C26.6 38.2365 25 40.1766 25 42.4999C25 45.2575 27.2437 47.4999 30 47.4999C32.7563 47.4999 35 45.2575 35 42.4999C35 40.1766 33.4 38.2365 31.25 37.6775V22.3223C31.6919 22.2074 32.1063 22.0327 32.4922 21.8085L38.1914 27.5077C37.7634 28.2444 37.5 29.0882 37.5 29.9999C37.5 32.7575 39.7437 34.9999 42.5 34.9999C45.2563 34.9999 47.5 32.7575 47.5 29.9999C47.5 27.2423 45.2563 24.9999 42.5 24.9999Z" fill="white"/>
<path opacity="0.2" d="M1.09619 27.9551L27.3486 1.688C28.7598 0.271072 31.2378 0.269852 32.6538 1.68922L58.9014 27.9539L58.9038 27.9551C59.5346 28.5896 59.8962 29.4132 59.9695 30.2946C59.9782 30.1899 60 30.0881 60 29.9819C60 28.9816 59.6094 28.0398 58.9038 27.3301L58.9014 27.3289L32.6538 1.06422C31.2378 -0.355148 28.7598 -0.353928 27.3486 1.063L1.09619 27.3301C0.390625 28.0398 0 28.9816 0 29.9819C0 30.088 0.02182 30.1897 0.0305175 30.2943C0.103912 29.4129 0.465546 28.5894 1.09619 27.9551Z" fill="white"/>
<path d="M46.3721 26.8759C47.0663 27.7346 47.5 28.8121 47.5 30C47.5 32.7576 45.2563 35 42.5 35C39.7437 35 37.5 32.7576 37.5 30C37.5 29.0883 37.7634 28.2445 38.1914 27.5078L32.4922 21.8087C32.1063 22.0328 31.6919 22.2075 31.25 22.3224V37.6776C33.4 38.2366 35 40.1767 35 42.5C35 45.2576 32.7563 47.5 30 47.5C28.7213 47.5 27.5655 47.0034 26.6803 46.2107L36.0098 55.5402L55.5171 36.021L46.3721 26.8759ZM34.2743 20.0556L39.9445 25.7257C40.695 25.2751 41.5628 25 42.5 25C43.6877 25 44.7656 25.4338 45.6245 26.1284L33.9304 14.4341L33.9243 14.4391C34.5879 15.2877 35 16.3416 35 17.5C35 18.4374 34.7247 19.3051 34.2743 20.0556Z" fill="url(#paint0_linear_1016_2)"/>
<path d="M58.9038 27.3301L58.9014 27.3289L32.6538 1.06422C31.2378 -0.355148 28.7598 -0.353928 27.3486 1.063L1.09619 27.3301C0.390625 28.0398 0 28.9816 0 29.9819C0 30.9835 0.390625 31.9263 1.09863 32.6348L27.3462 58.8995C28.0542 59.6091 28.9966 60.0001 30 60.0001C31.0034 60.0001 31.9458 59.6091 32.6514 58.9007L58.9014 32.6348C59.6094 31.9263 60 30.9835 60 29.9819C60 28.9816 59.6094 28.0398 58.9038 27.3301Z" fill="url(#paint1_linear_1016_2)"/>
</g>
<defs>
<linearGradient id="paint0_linear_1016_2" x1="24.1732" y1="24.1902" x2="45.7665" y2="45.7835" gradientUnits="userSpaceOnUse">
<stop stop-color="#010101" stop-opacity="0.1"/>
<stop offset="1" stop-color="#010101" stop-opacity="0"/>
</linearGradient>
<linearGradient id="paint1_linear_1016_2" x1="5.03455" y1="18.3498" x2="54.9584" y2="41.6297" gradientUnits="userSpaceOnUse">
<stop stop-color="white" stop-opacity="0.2"/>
<stop offset="1" stop-color="white" stop-opacity="0"/>
</linearGradient>
<clipPath id="clip0_1016_2">
<rect width="60" height="60" fill="white"/>
</clipPath>
</defs>
</svg>
